<svg xmlns="http://www.w3.org/2000/svg" viewBox="0 0 232 63" enable-background="new 0 0 232 63"><g fill-rule="evenodd"><g fill="#24336a"><path d="m.377 31.827l10.252-23.18c.715-1.599 2.02-2.566 3.781-2.566h.38c1.764 0 3.02.967 3.739 2.566l10.252 23.18c.211.461.339.882.339 1.306 0 1.725-1.347 3.112-3.071 3.112-1.512 0-2.519-.882-3.107-2.231l-1.974-4.625h-12.945l-2.057 4.838c-.546 1.26-1.637 2.02-2.983 2.02-1.679-.0001-2.983-1.348-2.983-3.03 0-.463.167-.929.377-1.39m18.19-8.16l-4.075-9.719-4.074 9.719h8.149"/><path d="m32.06 9.615c0-1.809 1.429-3.238 3.236-3.238h.712c1.39 0 2.356.715 2.942 1.681l7.816 12.747 7.857-12.789c.674-1.094 1.598-1.639 2.899-1.639h.714c1.807 0 3.235 1.429 3.235 3.238v23.392c0 1.807-1.429 3.238-3.236 3.238-1.761 0-3.194-1.474-3.194-3.238v-14.684l-5.671 8.751c-.675 1.01-1.512 1.639-2.688 1.639-1.178 0-2.02-.631-2.688-1.639l-5.59-8.625v14.64c0 1.768-1.429 3.155-3.193 3.155-1.766 0-3.152-1.388-3.152-3.155v-23.474h.0001"/><path d="m111.31 9.615c0-1.809 1.43-3.238 3.237-3.238h.711c1.389 0 2.354.715 2.942 1.681l7.816 12.747 7.857-12.789c.674-1.094 1.596-1.639 2.898-1.639h.715c1.807 0 3.236 1.429 3.236 3.238v23.392c0 1.807-1.43 3.238-3.237 3.238-1.762 0-3.193-1.474-3.193-3.238v-14.684l-5.673 8.751c-.673 1.01-1.511 1.639-2.687 1.639-1.178 0-2.02-.631-2.689-1.639l-5.59-8.625v14.64c0 1.768-1.428 3.155-3.192 3.155-1.766 0-3.153-1.388-3.153-3.155l.002-23.474"/><path d="m144.08 31.827l10.252-23.18c.715-1.599 2.02-2.566 3.781-2.566h.38c1.764 0 3.02.967 3.738 2.566l10.252 23.18c.212.461.34.882.34 1.306 0 1.725-1.349 3.112-3.072 3.112-1.511 0-2.518-.882-3.106-2.231l-1.976-4.625h-12.943l-2.056 4.838c-.547 1.26-1.639 2.02-2.985 2.02-1.679 0-2.981-1.347-2.981-3.03-.0001-.464.166-.93.376-1.391m18.19-8.16l-4.073-9.719-4.077 9.719h8.15"/><path d="m86.44 0c-11.584 0-20.974 9.402-20.974 21 0 11.6 9.391 21 20.975 21 11.584.0001 20.974-9.4 20.974-21 0-11.598-9.391-21-20.975-21m0 35.29c-7.88 0-14.268-6.396-14.268-14.286s6.388-14.285 14.268-14.285c7.879 0 14.267 6.396 14.267 14.285s-6.388 14.284-14.267 14.286"/></g><path fill="#f7921e" d="m95.53 17.594c-.38-.834-1.245-1.381-2.226-1.294-1.224.111-2.134 1.197-2.025 2.424.016.182.054.356.108.521.013.04.02.066.022.088.209.572.33 1.188.33 1.831 0 2.94-2.389 5.331-5.326 5.331-.611.0001-1.199-.109-1.746-.3.005.004.017.011.012.007-.163-.072-.335-.126-.513-.157-1.221-.222-2.393.61-2.609 1.81-.108.592.021 1.188.362 1.682.209.304.487.541.803.706 1.141.468 2.386.73 3.692.73 5.402 0 9.798-4.402 9.798-9.81 0-1.26-.248-2.461-.682-3.569"/></g><g fill="#f7921e"><path d="m176.13 34.04v.048c.006.391.097.742.278 1.047.182.311.426.551.74.733.317.177.676.269 1.081.274.405-.006.765-.098 1.081-.274.314-.183.559-.423.74-.733.181-.305.273-.656.277-1.047v-.048c-.004-.39-.097-.74-.277-1.046-.182-.311-.426-.553-.74-.734-.316-.176-.676-.268-1.081-.273-.405.005-.764.097-1.081.273-.314.182-.559.424-.74.734-.181.306-.272.656-.278 1.046"/><path d="m188.94 36.29c.701-.003 1.333-.072 1.888-.211s1.055-.331 1.496-.582c.438-.248.841-.539 1.198-.873.161-.144.285-.313.382-.506.098-.193.144-.412.15-.652-.007-.295-.073-.555-.211-.793-.133-.238-.317-.422-.546-.564-.233-.136-.496-.209-.789-.213-.22.004-.414.043-.586.117-.169.068-.307.145-.402.221-.346.282-.716.498-1.105.656-.395.157-.829.233-1.307.236-.503-.003-.953-.095-1.359-.281-.402-.182-.748-.434-1.033-.76-.284-.33-.507-.708-.658-1.14-.154-.431-.229-.894-.229-1.393v-.048c0-.479.079-.935.231-1.357.154-.423.367-.797.647-1.124.278-.325.612-.578.994-.765.382-.184.799-.276 1.263-.281.478 0 .896.076 1.261.221.366.141.708.341 1.03.599.107.089.254.169.431.247.18.072.39.113.631.116.31-.003.587-.075.84-.222.249-.144.445-.341.596-.587.148-.246.224-.524.229-.833-.006-.21-.038-.4-.097-.564-.061-.166-.137-.306-.225-.422-.089-.114-.174-.206-.258-.27-.54-.463-1.166-.818-1.882-1.07-.72-.251-1.564-.376-2.533-.379-.993.008-1.902.184-2.729.531-.824.351-1.54.833-2.144 1.453-.604.616-1.073 1.332-1.402 2.141-.331.814-.499 1.685-.503 2.613v.048c.004.93.172 1.799.507 2.605.33.805.799 1.514 1.402 2.125s1.315 1.09 2.131 1.433c.817.348 1.714.522 2.691.528"/><path d="m202.59 36.29c1.013-.006 1.946-.18 2.798-.531.853-.344 1.593-.828 2.223-1.445.631-.615 1.118-1.326 1.469-2.139.349-.811.525-1.688.531-2.623v-.048c-.006-.938-.183-1.807-.528-2.617-.346-.804-.832-1.514-1.455-2.125-.627-.608-1.362-1.083-2.211-1.425-.845-.343-1.773-.521-2.777-.523-1.013.003-1.947.18-2.794.531-.854.347-1.597.826-2.228 1.441-.632.614-1.119 1.333-1.469 2.146-.349.808-.526 1.682-.53 2.62v.048c.004.935.182 1.807.528 2.613.344.809.83 1.518 1.458 2.125.623.611 1.358 1.088 2.207 1.429.844.343 1.772.52 2.778.523m.049-3.164c-.508-.003-.97-.1-1.389-.289-.413-.189-.771-.45-1.072-.781-.302-.333-.531-.711-.695-1.138-.161-.431-.245-.886-.245-1.366v-.048c0-.479.076-.935.229-1.357.153-.423.369-.797.66-1.124.287-.325.642-.578 1.052-.765.416-.184.885-.276 1.412-.281.511.005.968.1 1.387.289.414.19.772.452 1.073.782.302.329.531.711.695 1.139.161.431.246.887.246 1.365v.048c0 .479-.076.935-.229 1.357-.147.424-.37.797-.661 1.124-.287.325-.638.58-1.052.764-.415.186-.885.278-1.411.281"/><path d="m212.27 34.31c.005.341.09.651.25.926.165.278.382.496.659.659.274.164.583.246.925.252.342-.006.652-.088.925-.252.278-.163.494-.381.659-.659.161-.274.244-.585.249-.926v-5.531c.009-.871.205-1.525.596-1.969.39-.443.93-.664 1.625-.664.69 0 1.221.221 1.587.664.37.443.556 1.098.561 1.969v5.531c.003.341.088.651.247.926.166.278.383.496.66.659.273.164.583.246.925.252.342-.006.65-.088.924-.252.278-.163.495-.381.661-.659.159-.274.245-.585.248-.926v-5.531c.009-.871.205-1.525.595-1.969.39-.443.93-.664 1.624-.664.692 0 1.223.221 1.589.664.369.443.555 1.098.559 1.969v5.531c.005.341.088.651.25.926.164.278.382.496.658.659.273.164.583.246.925.252.343-.006.651-.088.925-.252.277-.163.496-.381.659-.659.163-.274.246-.585.25-.926v-6.74c-.004-1.038-.177-1.912-.526-2.62-.346-.704-.846-1.235-1.497-1.598-.649-.359-1.431-.539-2.342-.539-.877.003-1.662.177-2.357.527-.695.351-1.326.858-1.89 1.525-.342-.656-.819-1.164-1.438-1.518-.619-.355-1.355-.532-2.204-.535-.614.003-1.157.104-1.623.298-.472.194-.882.442-1.238.758-.354.312-.673.655-.95 1.021v-.145c-.005-.341-.088-.652-.249-.926-.165-.276-.381-.495-.659-.659-.272-.163-.583-.247-.925-.251-.342.004-.65.088-.925.251-.277.164-.494.382-.659.659-.16.273-.245.584-.25.926v9.566h-.003"/></g><g fill="#24336a"><path d="m105.09 57.52c-.195-.105-.345-.33-.345-.63 0-.405.314-.735.734-.735.15 0 .285.045.391.105.765.51 1.56.765 2.279.765.78 0 1.23-.33 1.23-.854v-.03c0-.615-.84-.825-1.77-1.11-1.171-.33-2.476-.81-2.476-2.324v-.03c0-1.5 1.245-2.415 2.82-2.415.84 0 1.725.24 2.489.645.256.136.436.375.436.69 0 .42-.33.735-.75.735-.15 0-.24-.03-.36-.091-.645-.329-1.305-.539-1.859-.539-.705 0-1.11.329-1.11.779v.03c0 .585.855.825 1.785 1.125 1.155.36 2.46.885 2.46 2.31v.03c0 1.665-1.29 2.49-2.94 2.49-1-.0001-2.099-.317-3.01-.946"/><path d="m113.01 48.19c0-.494.39-.899.899-.899.511 0 .915.405.915.899v9.3c0 .51-.404.9-.915.9-.494 0-.899-.391-.899-.9v-9.3"/><path d="m120.82 58.49c-2.295 0-4.065-1.665-4.065-4.109v-.03c0-2.265 1.604-4.125 3.87-4.125 2.52 0 3.766 2.07 3.766 3.9 0 .51-.391.87-.855.87h-4.965c.195 1.289 1.109 2.01 2.279 2.01.766 0 1.365-.271 1.875-.69.135-.104.256-.165.465-.165.406 0 .721.315.721.735 0 .225-.105.42-.24.555-.722.645-1.62 1.049-2.851 1.049m1.799-4.694c-.119-1.17-.809-2.085-2.01-2.085-1.109 0-1.889.854-2.055 2.085h4.065"/><path d="m129.88 58.49c-2.295 0-4.064-1.665-4.064-4.109v-.03c0-2.265 1.605-4.125 3.871-4.125 2.52 0 3.764 2.07 3.764 3.9 0 .51-.391.87-.855.87h-4.965c.195 1.289 1.111 2.01 2.281 2.01.764 0 1.365-.271 1.875-.69.135-.104.254-.165.465-.165.404 0 .719.315.719.735 0 .225-.104.42-.238.555-.722.645-1.623 1.049-2.853 1.049m1.801-4.694c-.119-1.17-.811-2.085-2.01-2.085-1.109 0-1.891.854-2.055 2.085h4.065"/><path d="m135.31 51.22c0-.51.391-.915.9-.915s.914.405.914.915v.495c.586-.825 1.41-1.485 2.699-1.485 1.861 0 3.676 1.471 3.676 4.11v.029c0 2.625-1.801 4.11-3.676 4.11-1.318 0-2.145-.66-2.699-1.395v2.805c0 .51-.404.899-.914.899-.496 0-.9-.39-.9-.899v-8.669m6.343 3.149v-.029c0-1.53-1.033-2.535-2.264-2.535s-2.311 1.02-2.311 2.535v.029c0 1.516 1.08 2.535 2.311 2.535 1.245 0 2.264-.974 2.264-2.535"/><path d="m151.53 57.638l-2.131-6.03c-.045-.12-.09-.314-.09-.465 0-.435.346-.84.885-.84.451 0 .75.3.885.72l1.531 4.8 1.545-4.8c.135-.42.465-.72.93-.72h.105c.465 0 .795.3.93.72l1.559 4.8 1.545-4.814c.121-.39.406-.705.885-.705.496 0 .855.39.855.84 0 .135-.045.315-.074.405l-2.16 6.09c-.195.555-.57.81-1.01.81h-.059c-.451 0-.826-.255-.99-.779l-1.545-4.71-1.561 4.71c-.164.524-.539.779-.975.779h-.061c-.448-.002-.823-.257-1-.811"/><path d="m166.08 58.49c-2.295 0-4.064-1.665-4.064-4.109v-.03c0-2.265 1.605-4.125 3.871-4.125 2.52 0 3.764 2.07 3.764 3.9 0 .51-.391.87-.855.87h-4.965c.195 1.289 1.111 2.01 2.281 2.01.764 0 1.365-.271 1.875-.69.135-.104.254-.165.465-.165.404 0 .719.315.719.735 0 .225-.104.42-.238.555-.722.645-1.622 1.049-2.853 1.049m1.801-4.694c-.119-1.17-.811-2.085-2.01-2.085-1.109 0-1.891.854-2.055 2.085h4.065"/><path d="m171.61 48.19c0-.494.391-.899.9-.899s.914.405.914.899v9.3c0 .51-.404.9-.914.9-.494 0-.9-.391-.9-.9v-9.3"/><path d="m175.9 48.19c0-.494.389-.899.898-.899.512 0 .916.405.916.899v9.3c0 .51-.404.9-.916.9-.494 0-.898-.391-.898-.9v-9.3"/><path d="m191.8 58.18l-1.096-1.11c-.885.855-1.949 1.396-3.24 1.396-1.965 0-3.434-1.186-3.434-3v-.03c0-1.35.795-2.325 2.234-2.939-.6-.766-.869-1.426-.869-2.19v-.03c0-1.409 1.139-2.64 3.01-2.64 1.666 0 2.791 1.125 2.791 2.535v.03c0 1.38-.916 2.204-2.295 2.729l1.785 1.814c.314-.449.6-.96.869-1.499.074-.165.314-.436.689-.436.436 0 .795.36.795.78 0 .135-.045.285-.105.405-.344.645-.734 1.274-1.139 1.845l1.17 1.17c.18.18.285.359.285.63 0 .465-.346.825-.811.825-.268 0-.448-.091-.643-.285m-2.16-2.175l-2.34-2.385c-.99.435-1.41 1.079-1.41 1.755v.029c0 .885.734 1.53 1.756 1.53.734.0001 1.394-.36 1.994-.929m-.075-5.7v-.03c0-.705-.496-1.185-1.186-1.185-.75 0-1.26.525-1.26 1.26v.03c0 .524.209.915.795 1.56 1.081-.39 1.651-.871 1.651-1.635"/><path d="m199.23 57.52c-.195-.105-.346-.33-.346-.63 0-.405.314-.735.734-.735.15 0 .285.045.391.105.766.51 1.561.765 2.279.765.781 0 1.23-.33 1.23-.854v-.03c0-.615-.84-.825-1.77-1.11-1.17-.33-2.475-.81-2.475-2.324v-.03c0-1.5 1.244-2.415 2.82-2.415.84 0 1.725.24 2.488.645.256.136.436.375.436.69 0 .42-.33.735-.75.735-.15 0-.24-.03-.359-.091-.645-.329-1.305-.539-1.859-.539-.705 0-1.111.329-1.111.779v.03c0 .585.855.825 1.785 1.125 1.156.36 2.461.885 2.461 2.31v.03c0 1.665-1.291 2.49-2.941 2.49-1-.0001-2.099-.317-3.01-.946"/><path d="m206.52 56.03v-.029c0-1.71 1.336-2.55 3.27-2.55.885 0 1.516.135 2.131.329v-.194c0-1.125-.689-1.726-1.965-1.726-.691 0-1.26.12-1.756.315-.105.03-.195.045-.285.045-.42 0-.764-.33-.764-.75 0-.33.225-.615.494-.72.75-.285 1.516-.465 2.551-.465 1.184 0 2.068.314 2.625.885.584.57.854 1.41.854 2.445v3.899c0 .495-.389.87-.885.87-.525 0-.885-.36-.885-.766v-.3c-.539.646-1.365 1.155-2.58 1.155-1.485.003-2.805-.853-2.805-2.443m5.429-.569v-.54c-.465-.181-1.08-.315-1.799-.315-1.17 0-1.861.495-1.861 1.32v.03c0 .765.676 1.199 1.545 1.199 1.201 0 2.115-.689 2.115-1.694"/><path d="m218.89 58.46h-.09c-.496 0-.826-.315-1.035-.795l-2.641-6.05c-.045-.136-.104-.285-.104-.45 0-.45.404-.87.898-.87.496 0 .75.285.9.66l2.041 5.25 2.068-5.28c.135-.314.375-.63.855-.63.496 0 .885.375.885.87 0 .165-.061.345-.105.435l-2.639 6.06c-.209.464-.539.794-1.033.794"/><path d="m227.71 58.49c-2.295 0-4.064-1.665-4.064-4.109v-.03c0-2.265 1.604-4.125 3.869-4.125 2.52 0 3.766 2.07 3.766 3.9 0 .51-.391.87-.855.87h-4.965c.195 1.289 1.109 2.01 2.279 2.01.766 0 1.365-.271 1.875-.69.135-.104.256-.165.465-.165.406 0 .721.315.721.735 0 .225-.105.42-.24.555-.722.645-1.621 1.049-2.851 1.049m1.799-4.694c-.119-1.17-.809-2.085-2.01-2.085-1.109 0-1.889.854-2.055 2.085h4.065"/></g></svg>